<?xml version="1.0" encoding="UTF-8"?><svg id="logo_2" xmlns="http://www.w3.org/2000/svg" xmlns:xlink="http://www.w3.org/1999/xlink" viewBox="0 0 650 401.72"><defs><style>.cls-1{fill:#fdef42;}.cls-1,.cls-2,.cls-3,.cls-4,.cls-5,.cls-6,.cls-7,.cls-8{stroke-width:0px;}.cls-2{fill:#e1000f;}.cls-3,.cls-9{fill:none;}.cls-4{fill:#e31b23;}.cls-10{clip-path:url(#clippath-1);}.cls-5{fill:#00853f;}.cls-6{fill:#000091;}.cls-7{fill:#fff;}.cls-11{filter:url(#drop-shadow-2);}.cls-12{clip-path:url(#clippath);}.cls-8{fill:#1d1d1b;}.cls-9{stroke:rgba(255,255,255,0);stroke-miterlimit:10;stroke-width:.03px;}</style><clipPath id="clippath"><rect class="cls-3" x="1411.45" y="313.63" width="499.98" height="572.54"/></clipPath><clipPath id="clippath-1"><rect class="cls-3" x="1411.45" y="313.63" width="499.98" height="572.54"/></clipPath><filter id="drop-shadow-2" filterUnits="userSpaceOnUse"><feOffset dx="3.07" dy="3.07"/><feGaussianBlur result="blur" stdDeviation="7.69"/><feFlood flood-color="#000" flood-opacity=".45"/><feComposite in2="blur" operator="in"/><feComposite in="SourceGraphic"/></filter></defs><g id="layer1"><g id="g182"><g class="cls-12"><g id="g184"><g id="g190"><path id="path192" class="cls-9" d="M-328.84-792.67h3980.29V1992.87H-328.84V-792.67Z"/></g></g></g></g><g id="g198"><g class="cls-10"><g id="g200"><g id="g206"><path id="path208" class="cls-9" d="M-328.85-792.66h3980.29V1992.87H-328.85V-792.66Z"/></g></g></g></g></g><path class="cls-8" d="M25.22,331.31h8.25l6.31,38.74h-6.09l-1.11-7.69v.11h-6.92l-1.11,7.58h-5.65l6.31-38.74ZM31.86,357.21l-2.71-19.15h-.11l-2.66,19.15h5.48Z"/><path class="cls-8" d="M42.37,368.08c-1.51-1.68-2.27-4.09-2.27-7.22v-2.21h5.76v2.66c0,2.51,1.05,3.76,3.16,3.76,1.03,0,1.82-.3,2.35-.91.53-.61.8-1.6.8-2.96,0-1.62-.37-3.05-1.11-4.29-.74-1.24-2.1-2.72-4.1-4.46-2.51-2.21-4.26-4.22-5.26-6.01-1-1.79-1.5-3.81-1.5-6.06,0-3.06.78-5.43,2.33-7.11,1.55-1.68,3.8-2.52,6.75-2.52s5.12.84,6.61,2.52c1.5,1.68,2.24,4.09,2.24,7.22v1.61h-5.76v-1.99c0-1.33-.26-2.3-.77-2.91-.52-.61-1.27-.91-2.27-.91-2.03,0-3.04,1.24-3.04,3.71,0,1.4.38,2.71,1.13,3.93.76,1.22,2.13,2.69,4.12,4.43,2.55,2.21,4.3,4.23,5.26,6.03.96,1.81,1.44,3.93,1.44,6.37,0,3.17-.78,5.61-2.35,7.31-1.57,1.7-3.85,2.55-6.83,2.55s-5.18-.84-6.7-2.52Z"/><path class="cls-8" d="M61.58,368.08c-1.51-1.68-2.27-4.09-2.27-7.22v-2.21h5.76v2.66c0,2.51,1.05,3.76,3.16,3.76,1.03,0,1.82-.3,2.35-.91.53-.61.8-1.6.8-2.96,0-1.62-.37-3.05-1.11-4.29-.74-1.24-2.1-2.72-4.1-4.46-2.51-2.21-4.26-4.22-5.26-6.01-1-1.79-1.5-3.81-1.5-6.06,0-3.06.78-5.43,2.33-7.11,1.55-1.68,3.8-2.52,6.75-2.52s5.12.84,6.61,2.52c1.5,1.68,2.24,4.09,2.24,7.22v1.61h-5.76v-1.99c0-1.33-.26-2.3-.77-2.91-.52-.61-1.27-.91-2.27-.91-2.03,0-3.04,1.24-3.04,3.71,0,1.4.38,2.71,1.13,3.93.76,1.22,2.13,2.69,4.12,4.43,2.55,2.21,4.3,4.23,5.26,6.03.96,1.81,1.44,3.93,1.44,6.37,0,3.17-.78,5.61-2.35,7.31-1.57,1.7-3.85,2.55-6.83,2.55s-5.18-.84-6.7-2.52Z"/><path class="cls-8" d="M81.51,368.06c-1.59-1.7-2.38-4.1-2.38-7.2v-20.37c0-3.1.79-5.5,2.38-7.2,1.59-1.7,3.87-2.55,6.86-2.55s5.28.85,6.86,2.55c1.59,1.7,2.38,4.1,2.38,7.2v20.37c0,3.1-.79,5.5-2.38,7.2-1.59,1.7-3.88,2.55-6.86,2.55s-5.28-.85-6.86-2.55ZM91.52,361.25v-21.14c0-2.55-1.05-3.82-3.15-3.82s-3.16,1.27-3.16,3.82v21.14c0,2.55,1.05,3.82,3.16,3.82s3.15-1.27,3.15-3.82Z"/><path class="cls-8" d="M102.23,368.11c-1.53-1.66-2.3-4-2.3-7.03v-20.81c0-3.02.77-5.37,2.3-7.03,1.53-1.66,3.75-2.49,6.67-2.49s5.14.83,6.67,2.49c1.53,1.66,2.3,4,2.3,7.03v4.1h-5.76v-4.48c0-2.4-1.02-3.6-3.04-3.6s-3.04,1.2-3.04,3.6v21.64c0,2.36,1.01,3.54,3.04,3.54s3.04-1.18,3.04-3.54v-5.92h5.76v5.48c0,3.03-.77,5.37-2.3,7.03-1.53,1.66-3.75,2.49-6.67,2.49s-5.14-.83-6.67-2.49Z"/><path class="cls-8" d="M120.14,331.31h6.09v38.74h-6.09v-38.74Z"/><path class="cls-8" d="M134.09,331.31h8.25l6.31,38.74h-6.09l-1.11-7.69v.11h-6.92l-1.11,7.58h-5.65l6.31-38.74ZM140.73,357.21l-2.71-19.15h-.11l-2.66,19.15h5.48Z"/><path class="cls-8" d="M152.41,336.84h-6.37v-5.53h18.82v5.53h-6.37v33.21h-6.09v-33.21Z"/><path class="cls-8" d="M166.41,331.31h6.09v38.74h-6.09v-38.74Z"/><path class="cls-8" d="M177.59,368.06c-1.59-1.7-2.38-4.1-2.38-7.2v-20.37c0-3.1.79-5.5,2.38-7.2,1.59-1.7,3.87-2.55,6.86-2.55s5.28.85,6.86,2.55c1.59,1.7,2.38,4.1,2.38,7.2v20.37c0,3.1-.79,5.5-2.38,7.2-1.59,1.7-3.88,2.55-6.86,2.55s-5.28-.85-6.86-2.55ZM187.61,361.25v-21.14c0-2.55-1.05-3.82-3.15-3.82s-3.16,1.27-3.16,3.82v21.14c0,2.55,1.05,3.82,3.16,3.82s3.15-1.27,3.15-3.82Z"/><path class="cls-8" d="M196.41,331.31h7.64l5.92,23.19h.11v-23.19h5.42v38.74h-6.25l-7.31-28.28h-.11v28.28h-5.42v-38.74Z"/><path class="cls-8" d="M226.13,331.31h9.3c3.02,0,5.29.81,6.81,2.43,1.51,1.63,2.27,4,2.27,7.14v19.59c0,3.14-.76,5.52-2.27,7.14-1.51,1.62-3.78,2.44-6.81,2.44h-9.3v-38.74ZM235.32,364.51c1,0,1.76-.29,2.3-.89.54-.59.8-1.55.8-2.88v-20.15c0-1.33-.27-2.29-.8-2.88-.54-.59-1.3-.89-2.3-.89h-3.1v27.67h3.1Z"/><path class="cls-8" d="M247.22,331.31h16.6v5.53h-10.52v10.24h8.36v5.54h-8.36v11.9h10.52v5.54h-16.6v-38.74Z"/><path class="cls-8" d="M267.25,368.08c-1.51-1.68-2.27-4.09-2.27-7.22v-2.21h5.76v2.66c0,2.51,1.05,3.76,3.16,3.76,1.03,0,1.82-.3,2.35-.91.53-.61.8-1.6.8-2.96,0-1.62-.37-3.05-1.11-4.29-.74-1.24-2.1-2.72-4.1-4.46-2.51-2.21-4.26-4.22-5.26-6.01-1-1.79-1.5-3.81-1.5-6.06,0-3.06.78-5.43,2.33-7.11,1.55-1.68,3.8-2.52,6.75-2.52s5.12.84,6.61,2.52c1.5,1.68,2.24,4.09,2.24,7.22v1.61h-5.76v-1.99c0-1.33-.26-2.3-.77-2.91-.52-.61-1.27-.91-2.27-.91-2.03,0-3.04,1.24-3.04,3.71,0,1.4.38,2.71,1.13,3.93.76,1.22,2.13,2.69,4.12,4.43,2.55,2.21,4.3,4.23,5.26,6.03.96,1.81,1.44,3.93,1.44,6.37,0,3.17-.78,5.61-2.35,7.31-1.57,1.7-3.85,2.55-6.83,2.55s-5.18-.84-6.7-2.52Z"/><path class="cls-8" d="M293.93,368.08c-1.51-1.68-2.27-4.09-2.27-7.22v-2.21h5.76v2.66c0,2.51,1.05,3.76,3.16,3.76,1.03,0,1.82-.3,2.35-.91.53-.61.8-1.6.8-2.96,0-1.62-.37-3.05-1.11-4.29-.74-1.24-2.1-2.72-4.1-4.46-2.51-2.21-4.26-4.22-5.26-6.01-1-1.79-1.5-3.81-1.5-6.06,0-3.06.78-5.43,2.33-7.11,1.55-1.68,3.8-2.52,6.75-2.52s5.12.84,6.61,2.52c1.5,1.68,2.24,4.09,2.24,7.22v1.61h-5.76v-1.99c0-1.33-.26-2.3-.77-2.91-.52-.61-1.27-.91-2.27-.91-2.03,0-3.04,1.24-3.04,3.71,0,1.4.38,2.71,1.13,3.93.76,1.22,2.13,2.69,4.12,4.43,2.55,2.21,4.3,4.23,5.26,6.03.96,1.81,1.44,3.93,1.44,6.37,0,3.17-.78,5.61-2.35,7.31-1.57,1.7-3.85,2.55-6.83,2.55s-5.18-.84-6.7-2.52Z"/><path class="cls-8" d="M311.92,331.31h16.6v5.53h-10.52v10.24h8.36v5.54h-8.36v11.9h10.52v5.54h-16.6v-38.74ZM320.77,322.34h6.64l-5.92,6.37h-4.59l3.87-6.37Z"/><path class="cls-8" d="M330.63,331.31h7.64l5.92,23.19h.11v-23.19h5.42v38.74h-6.25l-7.31-28.28h-.11v28.28h-5.42v-38.74Z"/><path class="cls-8" d="M352.88,331.31h16.6v5.53h-10.52v10.24h8.36v5.54h-8.36v11.9h10.52v5.54h-16.6v-38.74ZM361.73,322.34h6.64l-5.92,6.37h-4.59l3.87-6.37Z"/><path class="cls-8" d="M373.46,368.08c-1.55-1.68-2.33-4.09-2.33-7.22v-20.37c0-3.14.78-5.54,2.33-7.22,1.55-1.68,3.8-2.52,6.75-2.52s5.2.84,6.75,2.52c1.55,1.68,2.33,4.09,2.33,7.22v3.32h-5.76v-3.71c0-2.55-1.05-3.82-3.15-3.82s-3.16,1.27-3.16,3.82v21.2c0,2.51,1.05,3.76,3.16,3.76s3.15-1.25,3.15-3.76v-7.58h-3.04v-5.54h8.8v12.68c0,3.14-.78,5.54-2.33,7.22-1.55,1.68-3.8,2.52-6.75,2.52s-5.2-.84-6.75-2.52Z"/><path class="cls-8" d="M396.54,331.31h8.25l6.31,38.74h-6.09l-1.11-7.69v.11h-6.92l-1.11,7.58h-5.65l6.31-38.74ZM403.19,357.21l-2.71-19.15h-.11l-2.66,19.15h5.48Z"/><path class="cls-8" d="M412.65,331.31h6.09v33.21h10.02v5.54h-16.11v-38.74Z"/><path class="cls-8" d="M435.23,331.31h8.25l6.31,38.74h-6.09l-1.11-7.69v.11h-6.92l-1.11,7.58h-5.65l6.31-38.74ZM441.88,357.21l-2.71-19.15h-.11l-2.66,19.15h5.48Z"/><path class="cls-8" d="M451.34,331.31h6.09v38.74h-6.09v-38.74Z"/><path class="cls-8" d="M461.8,368.08c-1.51-1.68-2.27-4.09-2.27-7.22v-2.21h5.76v2.66c0,2.51,1.05,3.76,3.15,3.76,1.03,0,1.82-.3,2.35-.91.54-.61.8-1.6.8-2.96,0-1.62-.37-3.05-1.11-4.29-.74-1.24-2.1-2.72-4.1-4.46-2.51-2.21-4.26-4.22-5.26-6.01-1-1.79-1.5-3.81-1.5-6.06,0-3.06.78-5.43,2.33-7.11,1.55-1.68,3.8-2.52,6.75-2.52s5.12.84,6.61,2.52c1.49,1.68,2.24,4.09,2.24,7.22v1.61h-5.76v-1.99c0-1.33-.26-2.3-.78-2.91-.52-.61-1.27-.91-2.27-.91-2.03,0-3.04,1.24-3.04,3.71,0,1.4.38,2.71,1.13,3.93s2.13,2.69,4.13,4.43c2.54,2.21,4.3,4.23,5.26,6.03.96,1.81,1.44,3.93,1.44,6.37,0,3.17-.79,5.61-2.35,7.31-1.57,1.7-3.85,2.55-6.84,2.55s-5.18-.84-6.7-2.52Z"/><path class="cls-8" d="M487.26,331.31h9.3c3.03,0,5.29.81,6.81,2.43,1.51,1.63,2.27,4,2.27,7.14v19.59c0,3.14-.76,5.52-2.27,7.14-1.51,1.62-3.78,2.44-6.81,2.44h-9.3v-38.74ZM496.45,364.51c1,0,1.76-.29,2.3-.89.54-.59.8-1.55.8-2.88v-20.15c0-1.33-.27-2.29-.8-2.88-.54-.59-1.3-.89-2.3-.89h-3.1v27.67h3.1Z"/><path class="cls-8" d="M507.85,331.31h6.2l-1.49,12.51h-3.27l-1.44-12.51Z"/><path class="cls-8" d="M518.81,331.31h8.25l6.31,38.74h-6.09l-1.11-7.69v.11h-6.92l-1.11,7.58h-5.65l6.31-38.74ZM525.45,357.21l-2.71-19.15h-.11l-2.66,19.15h5.48Z"/><path class="cls-8" d="M534.91,331.31h8.69l3.88,27.73h.11l3.88-27.73h8.69v38.74h-5.76v-29.33h-.11l-4.43,29.33h-5.09l-4.43-29.33h-.11v29.33h-5.31v-38.74Z"/><path class="cls-8" d="M563.31,331.31h6.09v38.74h-6.09v-38.74Z"/><path class="cls-8" d="M572.55,331.31h16.61v5.53h-10.52v10.24h8.36v5.54h-8.36v11.9h10.52v5.54h-16.61v-38.74Z"/><path class="cls-8" d="M591.26,331.31h7.64l5.92,23.19h.11v-23.19h5.42v38.74h-6.26l-7.3-28.28h-.11v28.28h-5.42v-38.74Z"/><path class="cls-8" d="M614.72,368.08c-1.51-1.68-2.27-4.09-2.27-7.22v-2.21h5.76v2.66c0,2.51,1.05,3.76,3.15,3.76,1.03,0,1.82-.3,2.35-.91.54-.61.8-1.6.8-2.96,0-1.62-.37-3.05-1.11-4.29-.74-1.24-2.1-2.72-4.1-4.46-2.51-2.21-4.26-4.22-5.26-6.01-1-1.79-1.49-3.81-1.49-6.06,0-3.06.78-5.43,2.32-7.11,1.55-1.68,3.8-2.52,6.75-2.52s5.12.84,6.61,2.52c1.49,1.68,2.24,4.09,2.24,7.22v1.61h-5.76v-1.99c0-1.33-.26-2.3-.78-2.91-.52-.61-1.27-.91-2.27-.91-2.03,0-3.04,1.24-3.04,3.71,0,1.4.38,2.71,1.13,3.93s2.13,2.69,4.13,4.43c2.54,2.21,4.3,4.23,5.26,6.03.96,1.81,1.44,3.93,1.44,6.37,0,3.17-.79,5.61-2.35,7.31-1.57,1.7-3.85,2.55-6.84,2.55s-5.18-.84-6.7-2.52Z"/><g class="cls-11"><path class="cls-5" d="M158.47,40.34c31.77,0,47.66,16.91,47.66,50.73v201.78h-53.81v-83.4h-38.82v83.4h-53.81V91.07c0-33.82,15.88-50.73,47.66-50.73h51.12ZM113.51,167.94h38.82v-83.4c0-2.05-.71-3.84-2.11-5.38-1.41-1.54-3.14-2.31-5.19-2.31h-24.21c-2.05,0-3.78.77-5.19,2.31-1.41,1.54-2.11,3.33-2.11,5.38v83.4Z"/><path class="cls-5" d="M215.35,302.07h-72.25v-83.4h-20.37v83.4H50.47V91.08c0-38.66,20.2-59.96,56.88-59.96h51.12c36.68,0,56.88,21.29,56.88,59.96v211ZM161.55,283.63h35.36V91.08c0-28.71-11.85-41.51-38.43-41.51h-51.12c-26.58,0-38.43,12.8-38.43,41.51v192.55h35.36v-83.4h57.27v83.4ZM161.55,177.17h-57.27v-92.62c0-4.36,1.57-8.38,4.54-11.62,3.16-3.46,7.31-5.29,11.98-5.29h24.21c4.66,0,8.81,1.83,11.98,5.29,2.98,3.26,4.54,7.27,4.54,11.62v92.62ZM122.73,158.72h20.37v-72.64h-20.37v72.64Z"/><path class="cls-1" d="M393.68,109.52h-51.12v-19.6c0-2.05-.71-3.84-2.11-5.38-1.41-1.54-3.14-2.31-5.19-2.31h-21.14c-2.05,0-3.78.77-5.19,2.31-1.41,1.54-2.11,3.33-2.11,5.38v44.2c0,2.05.7,3.84,2.11,5.38,1.41,1.54,3.13,2.31,5.19,2.31h34.59c31.77.52,47.66,17.43,47.66,50.73v53.42c0,33.82-15.89,50.73-47.66,50.73h-45.35c-31.77,0-47.66-16.91-47.66-50.73v-25.75h51.12v27.67c0,2.05.7,3.84,2.11,5.38,1.41,1.54,3.13,2.31,5.19,2.31h23.83c2.05,0,3.78-.77,5.19-2.31,1.41-1.54,2.11-3.33,2.11-5.38v-48.81c0-2.05-.71-3.84-2.11-5.38-1.41-1.54-3.14-2.31-5.19-2.31h-34.59c-31.77,0-47.66-16.91-47.66-50.73v-49.58c0-33.82,15.88-50.73,47.66-50.73h42.66c31.77,0,47.66,16.91,47.66,50.73v18.45Z"/><path class="cls-1" d="M348.71,305.92h-45.35c-36.68,0-56.88-21.29-56.88-59.96v-34.97h69.56v35.36h19.99v-45.74h-32.67c-36.68,0-56.88-21.29-56.88-59.96v-49.58c0-38.66,20.2-59.96,56.88-59.96h42.66c36.68,0,56.88,21.29,56.88,59.96v27.67h-69.56v-27.29h-17.3v41.12h32.67c36.73.6,56.88,21.89,56.88,59.96v53.42c0,38.66-20.2,59.96-56.88,59.96ZM264.93,229.44v16.53c0,28.71,11.85,41.51,38.43,41.51h45.35c26.58,0,38.43-12.8,38.43-41.51v-53.42c0-28.27-11.9-41.08-38.58-41.51h-34.44c-4.68,0-8.82-1.83-12-5.31-2.96-3.22-4.53-7.24-4.53-11.6v-44.2c0-4.36,1.57-8.38,4.54-11.62,3.16-3.46,7.31-5.29,11.98-5.29h21.14c4.66,0,8.81,1.83,11.98,5.29,2.98,3.26,4.54,7.27,4.54,11.62v10.38h32.67v-9.22c0-28.71-11.85-41.51-38.43-41.51h-42.66c-26.58,0-38.43,12.8-38.43,41.51v49.58c0,28.71,11.85,41.51,38.43,41.51h34.59c4.66,0,8.81,1.83,11.98,5.29,2.98,3.26,4.54,7.27,4.54,11.62v48.81c0,4.35-1.57,8.36-4.53,11.6-3.19,3.48-7.34,5.31-12,5.31h-23.83c-4.68,0-8.82-1.84-12-5.31-2.96-3.22-4.53-7.24-4.53-11.6v-18.45h-32.67Z"/><path class="cls-4" d="M540.11,40.34c31.77,0,47.66,16.91,47.66,50.73v201.78h-53.81v-83.4h-38.82v83.4h-53.81V91.07c0-33.82,15.88-50.73,47.66-50.73h51.12ZM495.14,167.94h38.82v-83.4c0-2.05-.71-3.84-2.11-5.38-1.41-1.54-3.14-2.31-5.19-2.31h-24.21c-2.05,0-3.78.77-5.19,2.31-1.41,1.54-2.11,3.33-2.11,5.38v83.4Z"/><path class="cls-4" d="M596.99,302.07h-72.25v-83.4h-20.37v83.4h-72.25V91.08c0-38.66,20.2-59.96,56.88-59.96h51.12c36.68,0,56.88,21.29,56.88,59.96v211ZM543.18,283.63h35.36V91.08c0-28.71-11.85-41.51-38.43-41.51h-51.12c-26.58,0-38.43,12.8-38.43,41.51v192.55h35.36v-83.4h57.27v83.4ZM543.18,177.17h-57.27v-92.62c0-4.36,1.57-8.38,4.54-11.62,3.16-3.46,7.31-5.29,11.98-5.29h24.21c4.66,0,8.81,1.83,11.98,5.29,2.98,3.26,4.54,7.27,4.54,11.62v92.62ZM504.36,158.72h20.37v-72.64h-20.37v72.64Z"/><path class="cls-7" d="M576.92,142.51c1.54-.31,3.15-.74,4.69-.61,6.03.52,11.15,2.96,15.44,7.34,3.46,3.52,6.69,7.15,8.56,11.76,2.23,5.53,4.53,11.04,6.43,16.68,2.12,6.35,3.71,12.83,7.64,18.48,3.24,4.65,7.72,6.45,13,7.03-.31-.25-.72-.33-1.05-.53-2.19-1.38-4.76-2.45-6.47-4.3-3.21-3.42-5.73-7.42-7.04-12.06-1.51-5.37-3.31-10.64-4.74-16.03-1.88-7.19-4.54-14.05-8.65-20.25-3.22-4.89-7.65-8.76-12.62-11.69-3.82-2.25-8.14-3.87-12.43-5.04-2.85-.77-4.62-2.02-5.94-4.57-1.71-3.35-3.46-6.67-3.78-10.49-.17-1.89.05-3.81.11-6.01-5.21,5.81-8.04,12.54-9.85,19.9-1.19-.32-2.27-.48-3.24-.92-.63-.29-1.34-.85-1.6-1.49-1.64-3.72-3.13-7.52-4.75-11.26-1.11-2.63-2.39-5.17-3.5-7.79-2.44-5.71-4.83-11.43-7.24-17.15-.09.03-.2.06-.29.1,2.2,12.31,4.4,24.64,6.63,37.05-4.15.83-6.93,3.32-8.94,6.72-2.12,3.61-1.81,7.27.14,10.98-5.22,1.93-8.03,5.42-7.89,10.98,0,.4-.35.93-.7,1.2-2.11,1.71-4.33,3.29-6.42,5.03-1.47,1.24-2.78,2.67-4.18,3.99-3.59,3.39-6.51,7.69-11.77,8.85-.54.12-1.04.48-1.54.74-2.53,1.3-2.73,2.43-.68,4.37,1.24,1.16,1.8,2.5,1.5,4.12-.39,2.12-.97,4.21-1.34,6.34-.12.64-.05,1.55.31,2.03,2.55,3.18,5.13,6.33,7.83,9.38.57.63,1.68,1.26,2.46,1.17,3.15-.37,6.3-.95,9.39-1.65.57-.11,1.35-1.14,1.34-1.74-.07-3.91,1.88-6.61,5.23-8.05,2.28-.97,4.89-1.24,7.4-1.58.87-.11,2.02.35,2.76.89,2.79,2.04,5.83,3.42,9.23,3.72,1.66.15,2.35.95,2.71,2.28.25,1.03.52,2.17.33,3.18-.4,2.15-1.09,4.25-1.73,6.62,11.52-6.07,18.83-15.21,21.56-28.27.64,1.62,1.27,3.25,1.91,4.89,2.52-4.6-1.13-13.77-6.51-16.06.09.7.21,1.36.28,2.04.67,6.37-.37,12.08-5.14,16.97-5.79,5.94-15.91,5.63-20.64-1.14-1.28-1.81-2.12-3.92-3.13-5.84-.2.57-.44,1.28-.7,2.01-6.01-2.19-8.88-2.29-10.98-.29,2.75.28,5.17,1.11,6.96,3.26-6.11,3.38-13.15,5.68-12.55,14.47-1.23.41-2.33.82-3.46,1.15-3.88,1.15-4.33,1.01-6.13-1.32-.76-.98-.67-1.62.34-2.19,1.01-.55,1.99-1.13,3.01-1.62,1.23-.58,2.49-1.08,3.74-1.62-.63-.24-1.2-.26-1.73-.14-2.26.55-4.51,1.13-6.78,1.69-.46.11-1.17.36-1.39.15-1.18-1.14-2.44-2.27-3.27-3.67-.36-.62.18-1.83.43-2.76.98-3.7,1.54-7.34-1.12-10.76,1.23-.46,2.39-.79,3.45-1.34,1.65-.86,3.55-1.55,4.76-2.85,5.05-5.41,10.54-10.3,16.38-14.83.85-.66,1.21-1.26,1.21-2.36,0-4.5,2.36-7.35,6.57-7.99.76-.11,1.66.13,2.35.48,2.11,1.11,4.09,2.47,6.24,3.51,4.66,2.24,9.64,3.12,14.8,3.2-.51-.27-1.04-.41-1.58-.56-6.51-1.88-12.32-4.95-16.57-10.38-1.01-1.29-1.72-2.95-2.14-4.57-.56-2.08.48-4.49,1.96-5.45-.93,5.18-.4,7.55,2.08,9.21.09-3.58.6-5.19,2.24-6.81-.84,4.64.98,8.09,4.43,10.73,4.52,3.46,9.48,6,15.21,6.73.22.03.48-.05.75-.1-2.78-1.39-5.54-2.55-8.06-4.08-3.18-1.94-5.13-4.88-5.14-7.04,3.61,1.42,4.88,1.51,9.21.59-2.53-4.64-2.46-9.59-1.7-14.62.68-4.54,3.54-11.99,5.4-13.82-.5,4.09.77,7.57,2.71,10.96,2.58,4.54,3.25,9.39,1.64,14.47-.41,1.29-.72,2.61-1.01,3.71,3.08,1.85,6.33,3.63,9.42,5.68,4.13,2.76,7.57,6.15,9.99,10.67,4.36,8.17,3.95,16.26.44,24.48-.74,1.72-1.61,3.36-2.43,5.04,11.16-12.66,11.89-25.74,1.36-39.25,1.03.84,1.8,1.77,2.63,2.62,2.77,2.84,5.06,5.92,6.4,9.72,1.67,4.79,1.99,9.6.69,14.43-2.9,10.84-9.73,18.4-19.99,22.62-4.58,1.89-9.49,2.96-14.24,4.46-4.65,1.46-9.37,2.7-13.85,4.55-3.4,1.43-6.78,3.26-9.66,5.56-9.39,7.44-14.44,17-12.68,29.3.47,3.29,1.94,6.25,4.15,9-.11-3.33-.37-6.44-.33-9.53.02-1.86.17-3.65.46-5.34,1.73-10.68,8.28-18.16,18.6-22.84,4.96-2.25,10.4-3.49,15.63-5.16,4.1-1.31,8.26-2.42,12.29-3.86,3.59-1.28,6.98-3.06,9.61-5.97,1.53-1.7,3.07-3.38,4.74-5.24-2.29,6.66-6.51,11.52-12.48,14.67-3.59,1.89-7.47,3.31-11.35,4.52-5.68,1.78-11.42,3.32-16.72,6.15-4.45,2.37-7.74,5.84-10.3,9.63,3.96-2.2,7.99-4.92,12.38-6.77,4.19-1.78,8.7-2.91,13.16-3.96,6.14-1.47,12.24-2.98,17.88-5.87,1.51-.78,3.06-1.61,4.38-2.65,5.69-4.51,8.85-10.58,10.24-17.6.6-3.09,1.05-6.22,1.55-9.34.04.04.11.06.12.1.05.23.13.45.14.66.66,7.37-.71,14.38-3.83,21.07-2.99,6.41-7.78,11.03-14.19,13.85-3.82,1.7-7.85,2.91-11.8,4.3-4.05,1.42-8.14,2.73-12.15,4.24-4.39,1.67-8.29,4.19-11.75,7.42-5.01,4.71-7.98,10.4-8.72,17.64.29-.52.41-.68.5-.87,2.63-5.93,7.28-9.66,13.24-11.73,6.79-2.35,13.92-2.48,20.99-2.74,5.97-.23,11.99-.2,17.34-3.31,2.82-1.64,5.64-3.4,8.09-5.55,2.4-2.1,4.31-4.73,6.44-7.13.02.05.17.24.21.45.24,1.33.55,2.67.67,4.03.53,7.07-2.06,13.01-6.7,18.19-.68.76-1.34,1.54-1.99,2.32.11.15.22.28.35.41,1.08-.68,2.12-1.46,3.26-2.06,3.79-2,6.88-4.84,9.41-8.25,4.92-6.57,6.76-14.18,6.47-22.18-.17-5.13-1.1-10.27-2-15.33-.42-2.36-1.23-4.82-2.53-6.8-2.19-3.33-4.4-6.6-5.56-10.44-1.79-5.98-3.46-12-5.14-18.02-1.29-4.65-3.56-8.86-6.4-12.68-3.94-5.32-9.27-8.99-15.56-11.01-2.19-.7-4.65-.56-7.16-.8.58-.37,1.05-.91,1.63-1.03ZM606.3,202.3c.49-2.61.79-5.27,1.36-7.95.24,1.8.57,3.59.69,5.4.45,7.12-.51,13.98-4.15,20.24-2.54,4.35-6.02,7.72-10.3,10.44-4.31,2.72-9,3.84-13.82,4.95-3.77.87-7.48.8-11.31.76,4.96-1.8,9.9-3.18,14.47-5.34,12.21-5.75,20.46-14.88,23.06-28.5Z"/><path class="cls-4" d="M604.2,219.99c-2.54,4.35-6.02,7.72-10.3,10.44-4.31,2.72-9,3.84-13.82,4.95-3.77.87-7.48.8-11.31.76,4.96-1.8,9.9-3.18,14.47-5.34,12.21-5.75,20.46-14.88,23.06-28.5.49-2.61.79-5.27,1.36-7.95.24,1.8.57,3.59.69,5.4.45,7.12-.51,13.98-4.15,20.24Z"/><path class="cls-7" d="M540.68,161.07c4.16.58,8,1.12,11.86,1.67,0,.06,0,.23-.02.24-2.99.87-5.2,3.05-7.81,4.56-.89.52-2.21.43-3.33.39-.77-.03-1.53-.42-2.27-.69-2.23-.81-4.24-.36-6.17,1,.9-2.19,2.25-3.92,4.54-4.71-.53-4.2,2.81-6.69,6.89-5.52,2.45.7,4.85,1.56,7.21,2.71-1.69-.32-3.37-.76-5.07-.93-1.41-.14-2.87-.05-4.27.15-.55.08-1.01.73-1.54,1.15ZM545.42,163.72c-3.27-1.07-4.69-.88-5.72.69,1.89,1.26,3.71,1.07,5.72-.69Z"/><path class="cls-7" d="M567.69,146.07c-3.12-5.3-2.27-10.53-.94-15.87,3.47,2.93,4.73,9.82.94,15.87Z"/><path class="cls-1" d="M599.97,209.59c-2.99,6.41-7.78,11.03-14.19,13.85-3.82,1.7-7.85,2.91-11.8,4.3-4.05,1.42-8.14,2.73-12.15,4.24-4.39,1.67-8.29,4.19-11.75,7.42-5.01,4.71-7.98,10.4-8.72,17.64-1.88-.5-4.62-11.13,2.58-23.11,3.96-2.2,7.99-4.92,12.38-6.77,4.19-1.78,8.7-2.91,13.16-3.96,6.14-1.47,12.24-2.98,17.88-5.87,1.51-.78,3.06-1.61,4.38-2.65,5.69-4.51,8.85-10.58,10.24-17.6.6-3.09,1.05-6.22,1.55-9.34.04.04.11.06.12.1.05.23.13.45.14.66.66,7.37-.71,14.38-3.83,21.07Z"/><path class="cls-5" d="M594.78,198.97c-2.29,6.66-6.51,11.52-12.48,14.67-3.59,1.89-7.47,3.31-11.35,4.52-5.68,1.78-11.42,3.32-16.72,6.15-4.45,2.37-7.74,5.84-10.3,9.63-7.33,3.43-9.6,6.48-10.03,8.1,1.73-10.68,8.28-18.16,18.6-22.84,4.96-2.25,10.4-3.49,15.63-5.16,4.1-1.31,8.26-2.42,12.29-3.86,3.59-1.28,6.98-3.06,9.61-5.97,1.53-1.7,3.07-3.38,4.74-5.24Z"/><path class="cls-7" d="M512.01,188.52c2.26-3.38,2.17-4.51-.57-4.8.49-.5.85-.98,1.31-1.32,1.24-.94,3.06-.77,4.01.32.89,1.01.89,2.82-.34,3.84-1.22,1.01-2.74,1.65-4.12,2.45-.09-.16-.19-.33-.28-.49Z"/><polygon class="cls-5" points="573.56 223.2 574.02 224.6 575.49 224.6 574.3 225.46 574.75 226.86 573.56 225.99 572.38 226.86 572.83 225.46 571.64 224.6 573.11 224.6 573.56 223.2"/><path class="cls-7" d="M116.29,154.55c-2.12-1.18-3.62-2.27-4.69-4.16-1.16-2.06-2.92-3.78-4.42-5.65-.11.1-.23.2-.34.3,1.32,2.72,2.62,5.46,3.99,8.15.26.51.83.88,1.31,1.25,7.13,5.51,14.28,11.01,21.41,16.53.71.55,1.36,1.18,2.45,2.15-3.97,0-7.41-.05-10.84.02-1.76.04-3.54.22-4.73,2.06,1.21.82,2.31,1.57,3.42,2.31.82.55,1.64,1.08,2.45,1.63,4.54,3.03,4.54,3.41,3.73,8.81-.42,2.78-1.46,4.29-4.25,5.26-3.32,1.15-6.38,3.08-9.46,4.84-.95.54-1.66,1.59-2.31,2.53-.57.82-.17,1.41.83,1.45,1.52.07,2.89-.18,3.91-1.53,2.76-3.67,7.03-4.72,11.03-6.19.46-.17,1.28.29,1.79.65,5.53,3.89,6.35,12.28,1.69,17.37-.33-1.84-.65-3.67-.98-5.49-.22-.02-.43-.04-.65-.06-.22,4.43-1.1,8.49-5.56,10.81-1.76-4.73-5.73-6.52-10.24-7.56-6.65-1.54-9.12-5.59-8.15-11.42.5-3.04,1.83-6.15,3.53-8.74,1.84-2.8,4.54-5.03,6.86-7.51-4.75-1.2-9.85-2.48-14.94-3.76-.05.13-.09.26-.14.4,3.49,1.47,6.97,2.94,10.73,4.53-3.6,2.53-6.46,5.49-8.28,9.31-1.81,3.8-2.69,7.74-1.26,12.03-14.48-10.13-21.73-18.5-14.99-40.11-.48.66-.74.92-.9,1.24-2.43,4.86-4.3,9.86-4.42,15.41-.11,5.43,1.6,10.29,4.66,14.63,2.79,3.96,5.94,7.65,8.89,11.49,3.24,4.21,6.17,8.62,6.73,14.08,1.02,10.1-4.28,19.56-13.5,24.21.37-2.06.85-4.05,1.07-6.08.94-8.79-2.35-16.49-6.51-23.89-4.26-7.59-8.83-15.01-13.03-22.63-2.82-5.13-4.66-10.66-5.13-16.56-.68-8.45,1.95-15.95,6.66-22.83.31-.45.61-.91.92-1.38.02-.03-.02-.09-.13-.6-2.72,2-5.29,3.89-7.98,5.87-3.73-3.63-6.94-7.84-6.28-13.5.98-8.52,10.25-12.79,17.91-8.44,1.78,1.01,3.31,2.47,5.09,3.82-.16-.39-.24-.75-.43-1.04-4.37-6.65-12.56-9.04-19.12-5.56-4.54,2.41-6.62,6.41-7.05,11.34-.49,5.57,1.25,10.51,4.77,14.9-11.79,10.9-16.89,23.96-12.94,39.97-.56-14.41,4.16-26.58,15.44-36.6-10.88,21.34-12.56,42.22.22,63.2-19.1-12.05-27.97-28.24-22.19-50.86-2.25,4.28-3.72,8.69-4.44,13.36-1.51,9.84,1.72,18.28,7.87,25.72,4.26,5.15,8.85,10.01,13.22,15.07,1.23,1.43,2.32,3.03,3.26,4.67,3.68,6.43,3.72,12.3.2,19.2-1.81-2.49-3.48-5.02-5.39-7.36-5.46-6.71-11.1-13.27-16.5-20.02-4.58-5.72-8.45-11.92-10.61-19-3-9.82-1.64-19.26,2.81-28.36,3.06-6.27,7.11-11.88,11.7-17.1.56-.63,1.11-1.27,1.83-2.09-10.56,4.7-26.49,25.03-20.61,48.08-3.99-4.95-6.67-10.16-7.55-16.19-1.58-10.78,1.99-20.19,8.01-28.85,4.78-6.88,10.74-12.57,17.82-17.08.33-.21.62-.47.84-.84-8.56,1.9-14.79,7.35-20.69,13.82-.22-6.23,1.1-11.8,4.13-16.8,7.95-13.09,19.65-20.66,34.85-22.47,13.63-1.62,24.58,3.47,33.09,14.09.29.37.6.72,1.03,1.01-.64-4.17-2.58-7.67-5.77-10.93,6.69-.37,12.58.71,17.51,5.08,4.75,4.2,7.01,9.72,7.71,15.84.39,3.43.07,6.93.07,10.75ZM88.67,147.07c-5.46,4.05-10.13,8.72-12.83,15.06-3.49,8.2-2.83,16.43.3,24.5,1.64,4.23,3.83,8.25,5.78,12.37.21-.09.41-.18.62-.27-.16-.49-.33-.99-.49-1.48-1.1-3.24-2.35-6.43-3.29-9.72-2.9-10.14-2.82-20.13,2.45-29.54,2.13-3.81,4.92-7.25,7.47-10.93ZM88.17,132.78c-14.36-15.13-41.35-8.85-50.23,6.06,15.32-12.09,31.74-16.17,50.23-6.06ZM101.2,163.95c.84-.35,1.46-.5,1.95-.85,1.33-.93,2.38-.69,3.54.39,1.47,1.38,3.13,2.56,4.68,3.86,2.12,1.78,4.22,3.58,6.49,5.5,0-.42.05-.57,0-.64-3.83-4.38-7.67-8.75-11.48-13.14-.38-.44-.78-1.08-.77-1.62.07-2.63-1.19-4.18-4-4.68,1.41,2.85,1.21,3.27-2,4.4-1.82.64-3.64,1.28-5.92,2.09,3.01.88,5.5,1.61,8.05,2.35-.17.74-.31,1.37-.53,2.32ZM65.65,147.58c3.83-2.52,7.98-3.15,12.19-3.65,1.06-.13,2.04-.84,3.1-1.3-2.23-3.74-7-5.35-10.97-3.96-3.35,1.17-4.86,4.12-4.31,8.9Z"/><path class="cls-6" d="M86.81,249.25c-.72,2.61-1.83,5.13-2.75,7.7-2-8.93-6.63-16.4-11.08-23.94-4.3-7.27-8.55-14.59-10.95-22.78-3.17-10.82-2.46-21.49,1.17-32.38.89,9.1,4.55,16.88,8.76,24.47,4.06,7.27,8.3,14.47,11.96,21.92,3.89,7.9,5.3,16.31,2.89,25Z"/><path class="cls-2" d="M117.77,237.13c-1.52,4.86-4.86,8.12-9.25,10.41-1.29.68-2.66,1.2-4.24,1.91.91-4.09,1.26-7.82.09-11.58-.17-.51.03-1.21.26-1.74,3.49-7.56,4.97-15.31,2.28-23.48-.03-.09.05-.21.08-.32,7.27,4.84,13.65,15.71,10.79,24.8Z"/><path class="cls-7" d="M136.52,182.39c.21,3.58.06,6.76-2.18,9.38-.38.45-1.17.54-1.77.8-.21-.62-.66-1.27-.58-1.85.26-2,.74-3.97,1.09-5.95.34-1.91,2.19-1.38,3.45-2.38Z"/></g><polygon class="cls-5" points="324.75 171.64 327.02 178.62 334.36 178.62 328.42 182.94 330.69 189.92 324.75 185.6 318.81 189.92 321.08 182.94 315.14 178.62 322.48 178.62 324.75 171.64"/></svg>